<svg width="124" height="111" viewBox="0 0 124 111" fill="none" xmlns="http://www.w3.org/2000/svg">
<ellipse cx="62" cy="55.5" rx="62" ry="55.5" fill="#00A884"/>
<path d="M84.0981 34.6829C78.0806 29.2835 70.067 26.3138 61.5507 26.3138C43.9723 26.3138 29.6684 39.1182 29.6684 54.8536C29.6684 59.8802 31.1332 64.7911 33.9193 69.1235L29.3955 83.9077L46.2989 79.9352C50.952 82.2107 56.1939 83.4063 61.5363 83.4063H61.5507C79.1147 83.4063 93.7346 70.602 93.7346 54.8665C93.7346 47.243 90.1155 40.0824 84.0981 34.6829ZM61.5507 78.5982C56.7827 78.5982 52.1152 77.4541 48.051 75.2943L47.0887 74.7801L37.0645 77.1327L39.7357 68.3779L39.1038 67.478C36.447 63.6984 35.0539 59.3403 35.0539 54.8536C35.0539 41.7793 46.9451 31.1348 61.565 31.1348C68.6452 31.1348 75.2945 33.6031 80.2923 38.0897C85.2901 42.5764 88.3634 48.5286 88.349 54.8665C88.349 67.9537 76.1562 78.5982 61.5507 78.5982ZM76.0844 60.8316C75.2945 60.4716 71.3739 58.7489 70.6414 58.5175C69.909 58.2733 69.3776 58.1576 68.8463 58.8775C68.3149 59.5974 66.7926 61.1915 66.3187 61.68C65.8591 62.1557 65.3852 62.22 64.5953 61.86C59.9135 59.7645 56.8401 58.119 53.7524 53.3752C52.9338 52.1154 54.571 52.2054 56.0933 49.4799C56.3518 49.0043 56.2226 48.5929 56.0215 48.2329C55.8205 47.873 54.2264 44.3633 53.5657 42.9363C52.9195 41.5479 52.2588 41.7408 51.7706 41.715C51.311 41.6893 50.7796 41.6893 50.2483 41.6893C49.7169 41.6893 48.8552 41.8693 48.1228 42.5764C47.3903 43.2963 45.3367 45.019 45.3367 48.5286C45.3367 52.0382 48.1946 55.4321 48.5823 55.9078C48.9844 56.3835 54.1976 63.5827 62.1969 66.6809C67.2521 68.635 69.234 68.8021 71.7616 68.4679C73.2983 68.2622 76.4722 66.7452 77.1328 65.074C77.7934 63.4027 77.7934 61.9757 77.5923 61.68C77.4056 61.3587 76.8743 61.1787 76.0844 60.8316Z" fill="white"/>
</svg>
